HIERARCHY
ROOT Hips
{
	OFFSET -41.156204 0.025330 1.336584
	CHANNELS 6 Xposition Yposition Zposition Zrotation Xrotation Yrotation
	JOINT Spine
	{
		OFFSET 0.000000 0.000000 0.000000
		CHANNELS 6 Xposition Yposition Zposition Zrotation Xrotation Yrotation
		JOINT Spine1
		{
			OFFSET 19.000000 0.000000 0.000000
			CHANNELS 3 Zrotation Xrotation Yrotation
			JOINT Neck
			{
				OFFSET 22.500000 0.000000 0.600001
				CHANNELS 6 Xposition Yposition Zposition Zrotation Xrotation Yrotation
				JOINT Head
				{
					OFFSET 14.000000 0.000000 0.030878
					CHANNELS 6 Xposition Yposition Zposition Zrotation Xrotation Yrotation
					End Site
					{
						OFFSET 17.000000 0.000000 0.000000
					}
				}
			}
			JOINT LeftShoulder
			{
				OFFSET 19.799999 -4.299988 3.700000
				CHANNELS 6 Xposition Yposition Zposition Zrotation Xrotation Yrotation
				JOINT LeftArm
				{
					OFFSET 8.000000 0.000000 0.000000
					CHANNELS 6 Xposition Yposition Zposition Zrotation Xrotation Yrotation
					JOINT LeftForeArm
					{
						OFFSET 15.200001 0.000000 0.000000
						CHANNELS 6 Xposition Yposition Zposition Zrotation Xrotation Yrotation
						JOINT LeftHand
						{
							OFFSET 17.799999 0.000000 0.000000
							CHANNELS 6 Xposition Yposition Zposition Zrotation Xrotation Yrotation
							End Site
							{
								OFFSET 7.199997 0.000000 0.000000
							}
						}
					}
				}
			}
			JOINT RightShoulder
			{
				OFFSET 19.799999 4.299988 3.699999
				CHANNELS 6 Xposition Yposition Zposition Zrotation Xrotation Yrotation
				JOINT RightArm
				{
					OFFSET 8.000000 -0.151642 0.000000
					CHANNELS 6 Xposition Yposition Zposition Zrotation Xrotation Yrotation
					JOINT RightForeArm
					{
						OFFSET 15.200001 0.000000 0.000000
						CHANNELS 6 Xposition Yposition Zposition Zrotation Xrotation Yrotation
						JOINT RightHand
						{
							OFFSET 17.799999 0.000000 0.000000
							CHANNELS 6 Xposition Yposition Zposition Zrotation Xrotation Yrotation
							End Site
							{
								OFFSET 7.199997 0.000000 0.000000
							}
						}
					}
				}
			}
		}
	}
	JOINT LeftUpLeg
	{
		OFFSET 5.984253 -4.788788 -7.665999
		CHANNELS 6 Xposition Yposition Zposition Zrotation Xrotation Yrotation
		JOINT LeftLeg
		{
			OFFSET 15.999998 0.000000 0.000000
			CHANNELS 6 Xposition Yposition Zposition Zrotation Xrotation Yrotation
			JOINT LeftFoot
			{
				OFFSET 18.000000 0.000000 0.000000
				CHANNELS 6 Xposition Yposition Zposition Zrotation Xrotation Yrotation
				End Site
				{
					OFFSET 0.000000 0.000000 -10.800000
				}
			}
		}
	}
	JOINT RightUpLeg
	{
		OFFSET 5.984253 4.788788 -7.665980
		CHANNELS 6 Xposition Yposition Zposition Zrotation Xrotation Yrotation
		JOINT RightLeg
		{
			OFFSET 15.999998 0.000000 0.000000
			CHANNELS 6 Xposition Yposition Zposition Zrotation Xrotation Yrotation
			JOINT RightFoot
			{
				OFFSET 18.000000 0.000000 0.000000
				CHANNELS 6 Xposition Yposition Zposition Zrotation Xrotation Yrotation
				End Site
				{
					OFFSET 0.000000 0.000000 -10.800000
				}
			}
		}
	}
	JOINT Tail
	{
		OFFSET 6.836960 0.000000 -0.722574
		CHANNELS 6 Xposition Yposition Zposition Zrotation Xrotation Yrotation
		JOINT Tail1
		{
			OFFSET 12.000000 0.000000 0.000000
			CHANNELS 6 Xposition Yposition Zposition Zrotation Xrotation Yrotation
			End Site
			{
				OFFSET 12.000000 0.000000 0.000000
			}
		}
	}
}
MOTION
Frames: 6
Frame Time: 0.041667
-111.610725 -71.193665 38.996101 57.378029 3.775261 9.088210 -0.000002 0.000002 0.000006 14.144978 -0.402506 169.289845 8.186041 -0.944826 2.619160 22.499989 -0.000003 0.600004 6.081449 -5.775506 15.329432 13.999997 0.000004 0.030888 -37.712777 99.502189 55.035028 19.799992 -4.300002 3.699999 16.625608 -122.372770 57.215398 7.999993 0.000003 -0.000008 -39.364453 133.050377 -40.945734 15.200005 0.000009 0.000009 23.050920 5.933229 69.740405 17.800007 -0.000008 0.000004 -7.083111 1.730499 -0.797373 19.799990 4.299985 3.700006 -13.573121 -36.250775 -77.890343 7.999998 -0.151623 0.000005 -47.648564 8.629250 -63.470694 15.199980 0.000016 -0.000006 18.876403 -6.904961 59.781046 17.799994 -0.000007 0.000003 4.436554 1.054633 15.572988 5.984245 -4.788780 -7.665995 16.537698 -3.690387 134.641866 16.000008 0.000005 -0.000007 17.496417 -6.613986 -53.867998 17.999998 0.000008 0.000002 -6.969729 2.970629 -56.399256 5.984253 4.788787 -7.665977 -0.509629 -5.979695 95.428289 16.000000 -0.000002 0.000008 -9.381677 -0.205044 -75.456515 18.000006 0.000007 0.000001 2.539062 1.511676 -54.334312 6.836960 0.000002 -0.722568 -28.705789 3.840218 1.065542 11.999996 -0.000000 -0.000000 -0.737696 -2.664504 -20.407249 
-112.078224 -72.597656 38.904510 58.481630 5.159092 9.217437 -0.000001 0.000006 0.000002 14.816653 -0.914045 170.451838 11.016534 -0.882161 1.040244 22.499979 -0.000013 0.600003 4.197999 -4.623884 16.835938 13.999965 -0.000005 0.030878 -37.338899 99.879154 54.163130 19.799980 -4.299997 3.699999 16.169443 -121.107300 56.522800 7.999986 0.000000 0.000016 -37.206144 129.525617 -40.930325 15.199995 0.000002 0.000015 19.173589 3.796839 65.503700 17.799994 0.000007 0.000011 -9.168141 1.538425 1.845321 19.799978 4.299977 3.700001 -13.189234 -35.617688 -78.735825 8.000003 -0.151639 -0.000013 -48.126442 7.087299 -62.638442 15.199992 -0.000011 0.000003 19.228384 -7.074851 57.866503 17.799997 0.000007 0.000011 3.756210 0.950277 14.910518 5.984251 -4.788785 -7.665995 16.540317 -3.959230 134.196442 15.999998 0.000001 -0.000002 17.264345 -6.401836 -58.397960 17.999998 -0.000009 0.000002 -7.122791 2.435145 -51.174728 5.984246 4.788793 -7.665979 -0.898754 -7.267124 93.780335 16.000004 -0.000012 -0.000008 -9.508256 -0.406009 -74.567320 17.999992 0.000006 0.000003 2.677264 1.550110 -57.697606 6.836957 0.000007 -0.722571 -29.078335 3.305114 2.084007 11.999998 0.000002 -0.000003 -1.647393 -3.021691 -21.294841 
-112.570724 -74.115662 38.842499 59.259835 6.675686 9.266832 -0.000001 -0.000007 0.000004 15.895761 -1.559044 171.080365 13.903496 -0.736896 0.160680 22.500002 0.000001 0.599996 2.541439 -3.514911 18.596005 13.999997 0.000004 0.030882 -40.219781 100.523302 56.148482 19.800003 -4.299982 3.700002 15.614868 -119.686443 55.628062 8.000002 -0.000004 0.000004 -38.702632 129.672876 -39.660989 15.199998 0.000004 0.000009 13.062494 1.360262 61.587385 17.800013 -0.000011 -0.000011 -9.405407 1.276371 2.776925 19.800007 4.299983 3.699996 -13.025044 -35.228125 -79.110830 8.000008 -0.151629 0.000009 -48.433599 6.418546 -62.854181 15.200001 -0.000006 0.000002 20.194368 -7.350376 56.485446 17.799997 -0.000021 -0.000001 2.291215 0.889838 14.259568 5.984248 -4.788793 -7.665997 16.094342 -4.951137 134.281150 15.999985 0.000007 -0.000000 16.723706 -6.310081 -62.522992 18.000002 -0.000012 0.000006 -7.237519 2.088970 -47.587878 5.984257 4.788792 -7.665971 -0.626820 -9.142153 92.335948 16.000000 -0.000005 -0.000004 -10.478310 -1.023888 -73.574928 18.000002 0.000003 -0.000000 2.894505 1.533301 -60.923095 6.836951 -0.000002 -0.722571 -28.404117 2.849358 4.224001 11.999992 0.000000 -0.000003 -2.746749 -3.690673 -21.868107 
-113.140930 -75.717651 38.830818 60.326765 7.931299 8.610803 -0.000004 -0.000007 -0.000010 16.602143 -2.038903 171.728509 16.287993 -0.599311 -0.016947 22.499998 -0.000008 0.600002 1.456381 -2.925411 20.136436 13.999976 -0.000007 0.030878 -40.165990 100.829711 55.895717 19.799995 -4.299988 3.700001 15.285682 -118.904496 55.072993 7.999995 0.000000 -0.000012 -41.770818 132.282473 -38.540585 15.199999 0.000000 0.000002 5.836349 0.517685 58.021105 17.799990 -0.000005 0.000001 -8.104901 0.710711 4.068314 19.800003 4.299994 3.700003 -12.873075 -35.347540 -79.381346 7.999999 -0.151639 0.000020 -49.263433 5.706650 -63.397433 15.199997 -0.000005 0.000006 20.576619 -7.467919 54.974601 17.800003 -0.000030 0.000002 1.270568 0.808466 13.484546 5.984257 -4.788793 -7.666010 15.718746 -5.827653 134.568851 15.999992 -0.000003 -0.000004 17.270241 -5.545091 -65.746342 18.000002 -0.000019 0.000012 -7.283675 1.827216 -45.213390 5.984245 4.788778 -7.665989 -0.804069 -10.233223 92.835118 15.999998 -0.000004 0.000007 -10.713039 -0.732936 -74.506818 17.999996 -0.000010 -0.000002 2.894346 1.554463 -62.757773 6.836957 -0.000012 -0.722586 -28.041924 2.769117 8.326754 11.999985 0.000000 0.000009 -3.904422 -4.654433 -21.687029 
-113.794731 -77.365662 38.947807 61.579688 8.365210 7.605076 0.000009 0.000005 0.000015 17.492091 -2.198937 171.802398 18.773381 -0.780892 0.555357 22.499996 -0.000015 0.600003 0.579078 -1.949076 21.684131 13.999969 -0.000009 0.030880 -42.221333 100.730271 56.428858 19.799995 -4.299996 3.700002 15.064638 -118.507252 54.968410 8.000007 0.000009 -0.000007 -46.625487 137.653488 -36.483251 15.199997 -0.000007 -0.000008 -3.222021 0.884367 52.983270 17.799988 0.000003 -0.000005 -8.264434 0.046790 7.443969 19.800005 4.299987 3.700004 -13.032628 -35.668358 -79.026771 7.999999 -0.151650 0.000007 -50.583281 4.664068 -64.368174 15.199998 0.000006 -0.000000 20.501518 -7.744766 53.440240 17.800003 0.000000 0.000007 0.610275 0.743271 12.609426 5.984263 -4.788780 -7.665984 15.405630 -6.428802 134.315711 16.000000 -0.000002 -0.000007 18.705421 -4.891052 -68.172125 18.000004 0.000004 0.000006 -7.632939 1.676521 -43.379269 5.984260 4.788788 -7.665963 -1.082043 -10.209642 95.453499 15.999994 0.000001 -0.000004 -9.378008 0.346730 -76.896933 18.000004 -0.000017 -0.000001 2.535628 1.681210 -64.594813 6.836967 -0.000002 -0.722559 -27.515810 3.488771 13.387273 12.000001 -0.000003 0.000006 -4.922334 -5.858993 -19.896855 
-114.491829 -79.076660 39.140503 63.235626 8.434621 6.378209 -0.000006 0.000008 -0.000001 17.704513 -2.234431 171.067402 20.646050 -0.893035 2.274289 22.500027 0.000009 0.599995 0.148498 -1.294010 22.962761 14.000026 -0.000001 0.030884 -42.177142 100.418281 55.528062 19.800028 -4.299986 3.700000 15.091332 -118.690970 55.331181 8.000008 0.000006 -0.000007 -50.438270 143.487712 -39.380832 15.199993 0.000013 0.000014 -9.411669 3.889941 55.569483 17.800007 -0.000002 -0.000020 -13.083566 -0.939347 13.702218 19.800037 4.299997 3.700001 -13.100791 -36.646560 -78.734002 8.000001 -0.151645 0.000018 -53.030275 2.661843 -65.769217 15.199998 0.000018 0.000000 19.857725 -8.390253 52.306835 17.799995 0.000004 0.000001 -0.019745 0.750976 11.077319 5.984254 -4.788777 -7.665997 14.973216 -6.293910 133.839073 15.999997 0.000003 0.000001 19.263048 -4.527100 -69.739407 18.000002 -0.000007 0.000002 -7.869880 1.669918 -42.921424 5.984254 4.788799 -7.665981 -1.134200 -9.866983 98.957550 16.000000 0.000001 0.000008 -7.600051 1.265080 -78.974219 17.999998 0.000007 0.000003 2.093754 1.816298 -65.964949 6.836959 0.000011 -0.722576 -26.887113 4.593048 18.450327 11.999986 -0.000002 -0.000002 -6.184166 -7.109543 -17.459476 
